<?xml version="1.0" encoding="utf-8"?>
<!-- Generator: Adobe Illustrator 21.1.0, SVG Export Plug-In . SVG Version: 6.00 Build 0)  -->
<svg version="1.1" xmlns="http://www.w3.org/2000/svg" xmlns:xlink="http://www.w3.org/1999/xlink" x="0px" y="0px"
	 viewBox="0 0 1500 1500" style="enable-background:new 0 0 1500 1500;" xml:space="preserve">
<style type="text/css">
	.st0{fill:#FF7F00;}
</style>
<g id="Слой_1">
	<path class="st0" d="M1328.9,411.1c0,98.8-8.8,196.7-25.4,293.8c-29.1,170.6-81.2,333.3-176.3,479.8
		c-49.6,76.4-107,146.7-176.9,205.2c-39.3,32.9-81.1,63.3-123.9,91.5c-40.1,26.4-82.1,23.3-124.1-0.6
		c-85.9-48.8-155.7-116.5-220.8-188.9c-49.7-55.3-90.2-117.8-124.6-184.3c-31.9-61.7-58.8-125.2-80.4-191.2
		c-26.7-81.6-45.1-165.1-56.5-250c-7.3-54.4-12.6-109.3-15.4-164.1c-3.2-63.5-3.4-127.3-3.6-190.9c-0.1-55.6,27.8-86.3,82.4-96
		c99.7-17.7,196.4-45.1,287.3-91c51.6-26.1,98.8-58.7,142.2-96.9c5.3-4.7,11.1-8.9,17-12.9c24.9-16.9,47.8-16,72,2.2
		c37.4,28.1,73.5,58.2,112.8,83.4c59,37.8,123.9,64.3,191.6,82.2c50.6,13.4,102,23.5,153.2,34.5c32.2,6.9,61,35.3,63.6,68.1
		C1326.5,326.8,1327.1,369,1328.9,411.1z M799.9,1051.3C799.9,1051.3,799.8,1051.3,799.9,1051.3c-0.1,64.2-0.1,128.4-0.1,192.6
		c0,33.6-0.1,67.3,0.3,100.9c0.2,16,7.2,29,21.8,35.9c14.5,6.9,29.5,5.4,41.6-5.4c39.8-35.6,81.5-69.5,117.9-108.3
		c63.4-67.5,112.7-145.2,152.9-228.8c42.9-89,73.1-182.2,93.2-278.7c7.8-37.3-11.5-61.1-49.8-61.4c-105-0.7-209.9-0.3-314.9-0.2
		c-22,0-41.1,8-51.4,27.3c-6.9,12.8-10.9,28.7-11,43.3C799.4,862.7,799.9,957,799.9,1051.3z M730,383.8c0-64.7,0.1-129.4-0.1-194.1
		c0-10.6-0.9-21.5-3.3-31.8c-4.5-19.1-20.9-28.9-39.5-23.2c-10.5,3.2-20.4,9-29.8,14.9c-68.2,42.6-140.9,75.2-218.5,96.2
		c-44.1,12-89.2,20.7-133.8,30.9c-27,6.2-39,18.3-39.8,44.7c-2.6,92.7-0.6,185.2,11.9,277.3c3.8,28,23.1,48.8,51,53.9
		c14.3,2.6,29.3,1.5,44,1.5c95.8,0.1,191.5,0.1,287.3-0.1c7.6,0,15.4-0.3,22.7-2.2c30.5-7.7,47.5-32.1,47.8-69.4
		C730.3,516.3,730,450,730,383.8z"/>
</g>
<g id="Слой_2">
</g>
</svg>
